<?xml version="1.0" encoding="UTF-8" standalone="no"?>
<svg
   xmlns:dc="http://purl.org/dc/elements/1.1/"
   xmlns:cc="http://creativecommons.org/ns#"
   xmlns:rdf="http://www.w3.org/1999/02/22-rdf-syntax-ns#"
   xmlns:svg="http://www.w3.org/2000/svg"
   xmlns="http://www.w3.org/2000/svg"
   viewBox="0 0 20.821138 16.742501"
   height="16.7425"
   width="20.821138"
   xml:space="preserve"
   version="1.1"
   id="svg2"><metadata
     id="metadata8"><rdf:RDF><cc:Work
         rdf:about=""><dc:format>image/svg+xml</dc:format><dc:type
           rdf:resource="http://purl.org/dc/dcmitype/StillImage" /><dc:title></dc:title></cc:Work></rdf:RDF></metadata><defs
     id="defs6"><clipPath
       id="clipPath692"
       clipPathUnits="userSpaceOnUse"><path
         id="path694"
         d="m 0,595.28 420.945,0 L 420.945,0 0,0 0,595.28 Z" /></clipPath><clipPath
       id="clipPath712"
       clipPathUnits="userSpaceOnUse"><path
         id="path714"
         d="m 0,595.28 420.945,0 L 420.945,0 0,0 0,595.28 Z" /></clipPath><clipPath
       id="clipPath732"
       clipPathUnits="userSpaceOnUse"><path
         id="path734"
         d="m 0,595.28 420.945,0 L 420.945,0 0,0 0,595.28 Z" /></clipPath><clipPath
       id="clipPath752"
       clipPathUnits="userSpaceOnUse"><path
         id="path754"
         d="m 0,595.28 420.945,0 L 420.945,0 0,0 0,595.28 Z" /></clipPath><clipPath
       id="clipPath776"
       clipPathUnits="userSpaceOnUse"><path
         id="path778"
         d="m 0,595.28 420.945,0 L 420.945,0 0,0 0,595.28 Z" /></clipPath><clipPath
       id="clipPath820"
       clipPathUnits="userSpaceOnUse"><path
         id="path822"
         d="m 0,595.28 420.945,0 L 420.945,0 0,0 0,595.28 Z" /></clipPath></defs><g
     transform="matrix(1.25,0,0,-1.25,-94.913415,579.60563)"
     id="g10"><g
       id="g688"><g
         clip-path="url(#clipPath692)"
         id="g690"><g
           transform="translate(327.6654,462.0783)"
           id="g696"><path
             id="path698"
             style="fill:#8e8e8d;fill-opacity:1;fill-rule:nonzero;stroke:none"
             d="m 0,0 c 0.281,-0.433 0.213,-0.976 -0.152,-1.211 l -14.86,-9.598 c -0.365,-0.236 -0.889,-0.076 -1.171,0.357 l -0.127,0.196 c -0.282,0.433 -0.213,0.976 0.152,1.212 l 14.86,9.597 c 0.365,0.236 0.889,0.076 1.171,-0.357 L 0,0 Z" /></g><g
           transform="translate(312.7857,456.9875)"
           id="g700"><path
             id="path702"
             style="fill:#8e8e8d;fill-opacity:1;fill-rule:nonzero;stroke:none"
             d="m 0,0 c 0,-3.699 3.007,-6.697 6.716,-6.697 3.709,0 6.716,2.998 6.716,6.697 0,3.699 -3.007,6.697 -6.716,6.697 C 3.007,6.697 0,3.699 0,0" /></g></g></g><text
       id="text704"
       style="font-variant:normal;font-weight:bold;font-stretch:normal;font-size:10.35779953px;font-family:Verdana;-inkscape-font-specification:Verdana-Bold;writing-mode:lr-tb;fill:#ececec;fill-opacity:1;fill-rule:nonzero;stroke:none"
       transform="matrix(1,0,0,-0.99725811,315.7461,452.3896)"><tspan
         id="tspan706"
         y="0"
         x="0">V</tspan></text>
<g
       id="g708"><g
         clip-path="url(#clipPath712)"
         id="g710"><g
           transform="translate(92.4144,462.0783)"
           id="g716"><path
             id="path718"
             style="fill:#8e8e8d;fill-opacity:1;fill-rule:nonzero;stroke:none"
             d="m 0,0 c 0.281,-0.433 0.213,-0.976 -0.152,-1.211 l -14.86,-9.598 c -0.365,-0.236 -0.889,-0.076 -1.171,0.357 l -0.127,0.196 c -0.282,0.433 -0.213,0.976 0.152,1.212 l 14.86,9.597 c 0.365,0.236 0.889,0.076 1.171,-0.357 L 0,0 Z" /></g><g
           transform="translate(77.5348,456.9875)"
           id="g720"><path
             id="path722"
             style="fill:#8e8e8d;fill-opacity:1;fill-rule:nonzero;stroke:none"
             d="m 0,0 c 0,-3.699 3.007,-6.697 6.716,-6.697 3.709,0 6.716,2.998 6.716,6.697 0,3.699 -3.007,6.697 -6.716,6.697 C 3.007,6.697 0,3.699 0,0" /></g></g></g><text
       id="text724"
       style="font-variant:normal;font-weight:bold;font-stretch:normal;font-size:8.37679958px;font-family:Verdana;-inkscape-font-specification:Verdana-Bold;writing-mode:lr-tb;fill:#ececec;fill-opacity:1;fill-rule:nonzero;stroke:none"
       transform="matrix(0.94499093,0,0,-1,79.8242,453.5693)"><tspan
         id="tspan726"
         y="0"
         x="0">W</tspan></text>
<g
       id="g728"><g
         clip-path="url(#clipPath732)"
         id="g730"><g
           transform="translate(275.0633,460.505)"
           id="g736"><path
             id="path738"
             style="fill:#8e8e8d;fill-opacity:1;fill-rule:nonzero;stroke:none"
             d="m 0,0 c 0,1.113 -0.878,2.016 -1.961,2.016 -1.083,0 -1.961,-0.903 -1.961,-2.016 0,-1.113 0.878,-2.016 1.961,-2.016 C -0.878,-2.016 0,-1.113 0,0 m -1.961,-2.959 c -1.59,0 -2.879,1.325 -2.879,2.959 0,1.635 1.289,2.96 2.879,2.96 1.59,0 2.879,-1.325 2.879,-2.96 0,-1.634 -1.289,-2.959 -2.879,-2.959" /></g><g
           transform="translate(278.6388,460.1955)"
           id="g740"><path
             id="path742"
             style="fill:#8e8e8d;fill-opacity:1;fill-rule:nonzero;stroke:none"
             d="m 0,0 c -0.058,0.172 -0.232,0.31 -0.39,0.31 l -9.952,0 c -0.158,0 -0.332,-0.138 -0.39,-0.31 l -2.972,-8.898 c -0.143,-0.429 -0.053,-0.788 0.206,-0.788 l 16.264,0 c 0.259,0 0.349,0.359 0.206,0.788 L 0,0 Z" /></g></g></g><text
       id="text744"
       style="font-variant:normal;font-weight:bold;font-stretch:normal;font-size:5.2249999px;font-family:Verdana;-inkscape-font-specification:Verdana-Bold;writing-mode:lr-tb;fill:#ececec;fill-opacity:1;fill-rule:nonzero;stroke:none"
       transform="matrix(1,0,0,-0.99726316,269.3057,453.5596)"><tspan
         id="tspan746"
         y="0"
         x="0 4.0284748">KG</tspan></text>
<g
       id="g748"><g
         clip-path="url(#clipPath752)"
         id="g750"><g
           transform="translate(220.6822,450.2272)"
           id="g756"><path
             id="path758"
             style="fill:#8e8e8d;fill-opacity:1;fill-rule:nonzero;stroke:none"
             d="m 0,0 -1.492,0 0,8.807 8.706,0 0,-1.489 L 0,7.318 0,0 Z" /></g><g
           transform="translate(228.0206,460.3986)"
           id="g760"><path
             id="path762"
             style="fill:#8e8e8d;fill-opacity:1;fill-rule:nonzero;stroke:none"
             d="m 0,0 -0.746,0 0,1.674 -7.463,0 0,-1.674 -0.746,0 0,3.411 0.746,0 0,-0.993 7.463,0 0,0.993 L 0,3.411 0,0 Z" /></g><g
           transform="translate(217.8839,459.0959)"
           id="g764"><path
             id="path766"
             style="fill:#8e8e8d;fill-opacity:1;fill-rule:nonzero;stroke:none"
             d="m 0,0 0,-0.744 -1.679,0 0,-7.442 1.679,0 0,-0.745 -3.421,0 0,0.745 0.995,0 0,7.442 -0.995,0 0,0.744 L 0,0 Z" /></g></g></g><text
       id="text768"
       style="font-variant:normal;font-weight:bold;font-stretch:normal;font-size:5.79489994px;font-family:Verdana;-inkscape-font-specification:Verdana-Bold;writing-mode:lr-tb;fill:#8e8e8d;fill-opacity:1;fill-rule:nonzero;stroke:none"
       transform="matrix(1,0,0,-0.99725621,221.8916,452.1602)"><tspan
         id="tspan770"
         y="0"
         x="0 6.1310043">mm</tspan></text>
<g
       id="g772"><g
         clip-path="url(#clipPath776)"
         id="g774"><g
           transform="translate(359.0511,451.5114)"
           id="g780"><path
             id="path782"
             style="fill:#8e8e8d;fill-opacity:1;fill-rule:nonzero;stroke:none"
             d="m 0,0 -1.365,5.369 -0.892,-1.78 -3.401,0 0,0.795 2.908,0 1.631,3.252 L -0.094,3.604 1.381,11.01 2.436,6.536 2.964,6.686 3.183,5.922 1.852,5.543 1.447,7.261 0,0 Z" /></g><g
           transform="translate(367.3292,453.8712)"
           id="g784"><path
             id="path786"
             style="fill:#ececec;fill-opacity:1;fill-rule:nonzero;stroke:none"
             d="m 0,0 -1.504,0 0,2.562 -2.221,0 0,-2.562 -1.504,0 0,5.817 1.504,0 0,-2.13 2.221,0 0,2.13 L 0,5.817 0,0 Z" /></g><g
           transform="translate(365.9681,454.0148)"
           id="g788"><path
             id="path790"
             style="fill:#8e8e8d;fill-opacity:1;fill-rule:nonzero;stroke:none"
             d="m 0,0 1.218,0 0,5.53 -1.218,0 0,-2.13 -2.507,0 0,2.13 -1.218,0 0,-5.53 1.218,0 0,2.562 L 0,2.562 0,0 Z m 1.505,-0.287 -1.792,0 0,2.562 -1.933,0 0,-2.562 -1.792,0 0,6.103 1.792,0 0,-2.129 1.933,0 0,2.129 1.792,0 0,-6.103 z" /></g><g
           transform="translate(372.5343,453.8712)"
           id="g792"><path
             id="path794"
             style="fill:#ececec;fill-opacity:1;fill-rule:nonzero;stroke:none"
             d="m 0,0 -4.132,0 0,0.902 2.316,2.457 -2.222,0 0,1.027 3.996,0 0,-0.886 L -2.323,1.046 0,1.046 0,0 Z" /></g><g
           transform="translate(368.546,454.0148)"
           id="g796"><path
             id="path798"
             style="fill:#8e8e8d;fill-opacity:1;fill-rule:nonzero;stroke:none"
             d="m 0,0 3.845,0 0,0.759 -2.509,0 2.466,2.653 0,0.687 -3.708,0 0,-0.741 2.411,0 L 0,0.701 0,0 Z m 4.132,-0.287 -4.419,0 0,1.102 2.127,2.257 -2.033,0 0,1.314 4.282,0 0,-1.086 -2.094,-2.254 2.137,0 0,-1.333 z" /></g><g
           transform="translate(130.0309,451.8654)"
           id="g800"><path
             id="path802"
             style="fill:#8e8e8d;fill-opacity:1;fill-rule:nonzero;stroke:none"
             d="m 0,0 c 0,0 -3.078,0.966 -2.873,4.332 0.132,2.176 0.801,2.835 0.304,3.557 -0.365,0.53 -0.809,0.628 -0.809,0.628 0,0 1.454,0.314 2.228,-1.214 0,0 -0.743,2.468 0.334,3.955 1.311,1.81 3.85,1.935 3.85,1.935 0,0 -1.345,-0.538 -0.745,-1.689 C 2.938,10.259 3.696,9.203 5.545,7.47 6.874,6.225 7.449,4.06 6.78,2.72 6.11,1.381 5.168,0.575 4.122,0.094 c 0,0 1.454,1.475 0.837,2.312 C 4.204,3.43 3.67,3.599 3.67,3.599 3.67,3.599 3.584,2.725 2.657,2.344 1.538,1.883 2.532,3.411 2.532,3.411 c 0,0 0.934,1.527 0.791,2.49 -0.143,0.962 -0.498,0.983 -0.498,0.983 0,0 0.428,-0.905 -1.764,-2.217 C 0.337,4.233 -0.846,4.405 -1.11,2.804 -1.297,1.664 0,0 0,0" /></g><path
           id="path804"
           style="fill:#f0f0f0;fill-opacity:1;fill-rule:nonzero;stroke:none"
           d="m 138.319,448.904 -15.347,0 0,7.838 15.347,0 0,-7.838 z" /><path
           id="path806"
           style="fill:#8e8e8d;fill-opacity:1;fill-rule:nonzero;stroke:none"
           d="m 123.064,448.997 15.163,0 0,7.654 -15.163,0 0,-7.654 z m 15.347,-0.184 -15.531,0 0,8.022 15.531,0 0,-8.022 z" /></g></g><text
       id="text808"
       style="font-variant:normal;font-weight:bold;font-stretch:normal;font-size:10.18120003px;font-family:Verdana;-inkscape-font-specification:Verdana-Bold;writing-mode:lr-tb;fill:#8e8e8d;fill-opacity:1;fill-rule:nonzero;stroke:none"
       transform="matrix(1,0,0,-0.99725966,123.54,449.8887)"><tspan
         id="tspan810"
         y="0"
         x="0">м</tspan></text>
<text
       id="text812"
       style="font-variant:normal;font-weight:bold;font-stretch:normal;font-size:10.18120003px;font-family:Verdana;-inkscape-font-specification:Verdana-Bold;writing-mode:lr-tb;fill:#ececec;fill-opacity:1;fill-rule:nonzero;stroke:none"
       transform="matrix(1,0,0,-0.99725966,131.9904,449.8887)"><tspan
         id="tspan814"
         y="0"
         x="0">²</tspan></text>
<g
       id="g816"><g
         clip-path="url(#clipPath820)"
         id="g818"><g
           transform="translate(137.1465,453.7158)"
           id="g824"><path
             id="path826"
             style="fill:none;stroke:#8e8e8d;stroke-width:0.25;stroke-linecap:butt;stroke-linejoin:miter;stroke-miterlimit:10;stroke-dasharray:none;stroke-opacity:1"
             d="m 0,0 -2.098,0 c 0.119,0.086 0.261,0.187 0.425,0.306 0.164,0.117 0.303,0.225 0.415,0.325 0.398,0.348 0.654,0.643 0.771,0.889 0.116,0.244 0.174,0.501 0.174,0.769 0,0.463 -0.166,0.815 -0.499,1.057 -0.334,0.242 -0.807,0.362 -1.42,0.362 -0.319,0 -0.636,-0.031 -0.953,-0.094 C -3.501,3.552 -3.767,3.482 -3.982,3.406 l 0,-1.175 0.114,0 c 0.182,0.106 0.388,0.199 0.614,0.278 0.228,0.079 0.436,0.119 0.624,0.119 0.262,0 0.46,-0.053 0.594,-0.156 0.135,-0.105 0.202,-0.255 0.202,-0.451 0,-0.178 -0.046,-0.354 -0.137,-0.528 C -2.063,1.319 -2.294,1.088 -2.665,0.8 -2.837,0.664 -3.048,0.517 -3.296,0.357 -3.545,0.199 -3.783,0.052 -4.012,-0.084 l 0,-0.937 4.012,0 L 0,0 Z" /></g><g
           transform="translate(187.8978,451.9958)"
           id="g828"><path
             id="path830"
             style="fill:#e3e2e1;fill-opacity:1;fill-rule:nonzero;stroke:none"
             d="m 0,0 -0.619,0 0,0.177 0.442,0 0,0.442 L 0,0.619 0,0 Z" /></g><path
           id="path832"
           style="fill:#e3e2e1;fill-opacity:1;fill-rule:nonzero;stroke:none"
           d="m 175.725,451.996 -1.05,0 0,0.177 1.05,0 0,-0.177 z m 2.101,0 -1.05,0 0,0.177 1.05,0 0,-0.177 z m 2.101,0 -1.051,0 0,0.177 1.051,0 0,-0.177 z m 2.1,0 -1.051,0 0,0.177 1.051,0 0,-0.177 z m 2.101,0 -1.051,0 0,0.177 1.051,0 0,-0.177 z m 2.101,0 -1.051,0 0,0.177 1.051,0 0,-0.177 z" /><g
           transform="translate(173.6244,451.9958)"
           id="g834"><path
             id="path836"
             style="fill:#e3e2e1;fill-opacity:1;fill-rule:nonzero;stroke:none"
             d="m 0,0 -0.619,0 0,0.619 0.177,0 0,-0.442 L 0,0.177 0,0 Z" /></g><path
           id="path838"
           style="fill:#e3e2e1;fill-opacity:1;fill-rule:nonzero;stroke:none"
           d="m 173.182,457.226 -0.177,0 0,0.922 0.177,0 0,-0.922 z m 0,-1.845 -0.177,0 0,0.922 0.177,0 0,-0.922 z m 0,-1.844 -0.177,0 0,0.922 0.177,0 0,-0.922 z" /><g
           transform="translate(173.1825,459.0695)"
           id="g840"><path
             id="path842"
             style="fill:#e3e2e1;fill-opacity:1;fill-rule:nonzero;stroke:none"
             d="m 0,0 -0.177,0 0,0.619 0.619,0 0,-0.177 L 0,0.442 0,0 Z" /></g><path
           id="path844"
           style="fill:#e3e2e1;fill-opacity:1;fill-rule:nonzero;stroke:none"
           d="m 175.725,459.511 -1.051,0 0,0.177 1.051,0 0,-0.177 z m 2.101,0 -1.051,0 0,0.177 1.051,0 0,-0.177 z m 2.101,0 -1.051,0 0,0.177 1.051,0 0,-0.177 z m 2.1,0 -1.051,0 0,0.177 1.051,0 0,-0.177 z m 2.101,0 -1.05,0 0,0.177 1.05,0 0,-0.177 z m 2.101,0 -1.05,0 0,0.177 1.05,0 0,-0.177 z" /><g
           transform="translate(187.8978,459.0695)"
           id="g846"><path
             id="path848"
             style="fill:#e3e2e1;fill-opacity:1;fill-rule:nonzero;stroke:none"
             d="m 0,0 -0.177,0 0,0.442 -0.442,0 0,0.177 L 0,0.619 0,0 Z" /></g><path
           id="path850"
           style="fill:#e3e2e1;fill-opacity:1;fill-rule:nonzero;stroke:none"
           d="m 187.898,457.225 -0.177,0 0,0.922 0.177,0 0,-0.922 z m 0,-1.844 -0.177,0 0,0.922 0.177,0 0,-0.922 z m 0,-1.844 -0.177,0 0,0.922 0.177,0 0,-0.922 z" /><g
           transform="translate(177.5103,452.4132)"
           id="g852"><path
             id="path854"
             style="fill:#8e8e8d;fill-opacity:1;fill-rule:nonzero;stroke:none"
             d="m 0,0 c 0,0 -2.951,0.926 -2.755,4.153 0.127,2.087 0.769,2.719 0.292,3.411 -0.35,0.508 -0.776,0.602 -0.776,0.602 0,0 1.395,0.301 2.136,-1.164 0,0 -0.711,2.367 0.321,3.792 1.256,1.735 3.691,1.856 3.691,1.856 0,0 -1.289,-0.516 -0.714,-1.619 C 2.817,9.837 3.543,8.824 5.317,7.163 6.591,5.969 7.143,3.892 6.5,2.608 5.858,1.324 4.956,0.552 3.952,0.09 c 0,0 1.395,1.415 0.803,2.217 -0.724,0.982 -1.236,1.144 -1.236,1.144 0,0 -0.082,-0.838 -0.971,-1.204 -1.073,-0.441 -0.12,1.024 -0.12,1.024 0,0 0.895,1.464 0.758,2.387 -0.136,0.923 -0.478,0.943 -0.478,0.943 0,0 0.411,-0.869 -1.69,-2.127 C 0.323,4.059 -0.812,4.223 -1.064,2.688 -1.244,1.595 0,0 0,0" /></g><path
           id="path856"
           style="fill:#f0f0f0;fill-opacity:1;fill-rule:nonzero;stroke:none"
           d="m 185.457,449.574 -14.715,0 0,7.516 14.715,0 0,-7.516 z" /><path
           id="path858"
           style="fill:#e3e2e1;fill-opacity:1;fill-rule:nonzero;stroke:none"
           d="m 170.83,449.663 14.538,0 0,7.339 -14.538,0 0,-7.339 z m 14.716,-0.177 -14.892,0 0,7.692 14.892,0 0,-7.692 z" /></g></g><text
       id="text860"
       style="font-variant:normal;font-weight:bold;font-stretch:normal;font-size:9.76179981px;font-family:Verdana;-inkscape-font-specification:Verdana-Bold;writing-mode:lr-tb;fill:#8e8e8d;fill-opacity:1;fill-rule:nonzero;stroke:none"
       transform="matrix(1,0,0,-0.9972546,171.2871,450.5186)"><tspan
         id="tspan862"
         y="0"
         x="0">м</tspan></text>
<text
       id="text864"
       style="font-variant:normal;font-weight:bold;font-stretch:normal;font-size:10.18120003px;font-family:Verdana;-inkscape-font-specification:Verdana-Bold;writing-mode:lr-tb;fill:#ececec;fill-opacity:1;fill-rule:nonzero;stroke:none"
       transform="matrix(1,0,0,-0.99725966,179.3906,450.5186)"><tspan
         id="tspan866"
         y="0"
         x="0">³</tspan></text>
</g></svg>