<?xml version="1.0" encoding="UTF-8" standalone="no"?>
<svg
   xmlns:dc="http://purl.org/dc/elements/1.1/"
   xmlns:cc="http://creativecommons.org/ns#"
   xmlns:rdf="http://www.w3.org/1999/02/22-rdf-syntax-ns#"
   xmlns:svg="http://www.w3.org/2000/svg"
   xmlns="http://www.w3.org/2000/svg"
   viewBox="0 0 21.014499 16.194375"
   height="16.194374"
   width="21.0145"
   xml:space="preserve"
   version="1.1"
   id="svg2"><metadata
     id="metadata8"><rdf:RDF><cc:Work
         rdf:about=""><dc:format>image/svg+xml</dc:format><dc:type
           rdf:resource="http://purl.org/dc/dcmitype/StillImage" /><dc:title></dc:title></cc:Work></rdf:RDF></metadata><defs
     id="defs6"><clipPath
       id="clipPath580"
       clipPathUnits="userSpaceOnUse"><path
         id="path582"
         d="m 0,595.28 420.945,0 L 420.945,0 0,0 0,595.28 Z" /></clipPath><clipPath
       id="clipPath600"
       clipPathUnits="userSpaceOnUse"><path
         id="path602"
         d="m 0,595.28 420.945,0 L 420.945,0 0,0 0,595.28 Z" /></clipPath><clipPath
       id="clipPath620"
       clipPathUnits="userSpaceOnUse"><path
         id="path622"
         d="m 0,595.28 420.945,0 L 420.945,0 0,0 0,595.28 Z" /></clipPath><clipPath
       id="clipPath640"
       clipPathUnits="userSpaceOnUse"><path
         id="path642"
         d="m 0,595.28 420.945,0 L 420.945,0 0,0 0,595.28 Z" /></clipPath><clipPath
       id="clipPath664"
       clipPathUnits="userSpaceOnUse"><path
         id="path666"
         d="m 0,595.28 420.945,0 L 420.945,0 0,0 0,595.28 Z" /></clipPath><clipPath
       id="clipPath708"
       clipPathUnits="userSpaceOnUse"><path
         id="path710"
         d="m 0,595.28 420.945,0 L 420.945,0 0,0 0,595.28 Z" /></clipPath><clipPath
       id="clipPath760"
       clipPathUnits="userSpaceOnUse"><path
         id="path762"
         d="m 0,595.28 420.945,0 L 420.945,0 0,0 0,595.28 Z" /></clipPath></defs><g
     transform="matrix(1.25,0,0,-1.25,-332.28475,601.22587)"
     id="g10"><path
       id="path692-3"
       style="fill:#f0f0f0;fill-opacity:1;fill-rule:nonzero;stroke:#e3e2e1;stroke-width:0.25;stroke-linecap:butt;stroke-linejoin:miter;stroke-miterlimit:10;stroke-dasharray:none;stroke-opacity:1"
       d="m 139.21303,466.44633 -15.347,0 0,7.838 15.347,0 0,-7.838 z" /><text
       id="text560"
       style="font-variant:normal;font-weight:bold;font-stretch:normal;font-size:6.16569996px;font-family:EurofontC;-inkscape-font-specification:EurofontC-Bold;writing-mode:lr-tb;fill:#ffffff;fill-opacity:1;fill-rule:nonzero;stroke:none"
       transform="matrix(1,0,0,-1,23.2402,450.9692)"><tspan
         id="tspan562"
         y="0"
         x="0 3.391135 7.5406513 13.52138 15.574558 19.680914 23.787271">TCM 600</tspan></text>
<g
       id="g576"><g
         clip-path="url(#clipPath580)"
         id="g578"><g
           transform="translate(328.6263,479.594)"
           id="g584"><path
             id="path586"
             style="fill:#8e8e8d;fill-opacity:1;fill-rule:nonzero;stroke:none"
             d="m 0,0 c 0.281,-0.433 0.213,-0.976 -0.152,-1.211 l -14.86,-9.598 c -0.365,-0.236 -0.89,-0.076 -1.171,0.357 l -0.127,0.196 c -0.282,0.433 -0.214,0.976 0.152,1.212 l 14.86,9.597 c 0.365,0.236 0.889,0.076 1.171,-0.357 L 0,0 Z" /></g><g
           transform="translate(313.7466,474.5031)"
           id="g588"><path
             id="path590"
             style="fill:#8e8e8d;fill-opacity:1;fill-rule:nonzero;stroke:none"
             d="m 0,0 c 0,-3.699 3.007,-6.697 6.716,-6.697 3.709,0 6.716,2.998 6.716,6.697 0,3.699 -3.007,6.697 -6.716,6.697 C 3.007,6.697 0,3.699 0,0" /></g></g></g><text
       id="text592"
       style="font-variant:normal;font-weight:bold;font-stretch:normal;font-size:10.35779953px;font-family:Verdana;-inkscape-font-specification:Verdana-Bold;writing-mode:lr-tb;fill:#ececec;fill-opacity:1;fill-rule:nonzero;stroke:none"
       transform="matrix(1,0,0,-0.99725811,316.707,469.9053)"><tspan
         id="tspan594"
         y="0"
         x="0">V</tspan></text>
<g
       id="g596"><g
         clip-path="url(#clipPath600)"
         id="g598"><g
           transform="translate(93.3753,479.594)"
           id="g604"><path
             id="path606"
             style="fill:#8e8e8d;fill-opacity:1;fill-rule:nonzero;stroke:none"
             d="m 0,0 c 0.281,-0.433 0.213,-0.976 -0.152,-1.211 l -14.86,-9.598 c -0.365,-0.236 -0.89,-0.076 -1.171,0.357 l -0.127,0.196 c -0.282,0.433 -0.214,0.976 0.152,1.212 l 14.86,9.597 c 0.365,0.236 0.889,0.076 1.171,-0.357 L 0,0 Z" /></g><g
           transform="translate(78.4956,474.5031)"
           id="g608"><path
             id="path610"
             style="fill:#8e8e8d;fill-opacity:1;fill-rule:nonzero;stroke:none"
             d="m 0,0 c 0,-3.699 3.007,-6.697 6.716,-6.697 3.709,0 6.716,2.998 6.716,6.697 0,3.699 -3.007,6.697 -6.716,6.697 C 3.007,6.697 0,3.699 0,0" /></g></g></g><text
       id="text612"
       style="font-variant:normal;font-weight:bold;font-stretch:normal;font-size:8.37679958px;font-family:Verdana;-inkscape-font-specification:Verdana-Bold;writing-mode:lr-tb;fill:#ececec;fill-opacity:1;fill-rule:nonzero;stroke:none"
       transform="matrix(0.94499093,0,0,-1,80.7852,471.085)"><tspan
         id="tspan614"
         y="0"
         x="0">W</tspan></text>
<g
       id="g616"><g
         clip-path="url(#clipPath620)"
         id="g618"><g
           transform="translate(276.024,478.0207)"
           id="g624"><path
             id="path626"
             style="fill:#8e8e8d;fill-opacity:1;fill-rule:nonzero;stroke:none"
             d="m 0,0 c 0,1.113 -0.878,2.016 -1.961,2.016 -1.083,0 -1.961,-0.903 -1.961,-2.016 0,-1.113 0.878,-2.016 1.961,-2.016 C -0.878,-2.016 0,-1.113 0,0 m -1.961,-2.959 c -1.59,0 -2.879,1.325 -2.879,2.959 0,1.635 1.289,2.96 2.879,2.96 1.59,0 2.879,-1.325 2.879,-2.96 0,-1.634 -1.289,-2.959 -2.879,-2.959" /></g><g
           transform="translate(279.5996,477.7112)"
           id="g628"><path
             id="path630"
             style="fill:#8e8e8d;fill-opacity:1;fill-rule:nonzero;stroke:none"
             d="m 0,0 c -0.058,0.172 -0.232,0.31 -0.391,0.31 l -9.951,0 c -0.158,0 -0.333,-0.138 -0.39,-0.31 l -2.972,-8.898 c -0.143,-0.429 -0.053,-0.788 0.206,-0.788 l 16.264,0 c 0.259,0 0.349,0.359 0.206,0.788 L 0,0 Z" /></g></g></g><text
       id="text632"
       style="font-variant:normal;font-weight:bold;font-stretch:normal;font-size:5.2249999px;font-family:Verdana;-inkscape-font-specification:Verdana-Bold;writing-mode:lr-tb;fill:#ececec;fill-opacity:1;fill-rule:nonzero;stroke:none"
       transform="matrix(1,0,0,-0.99726316,270.2666,471.0752)"><tspan
         id="tspan634"
         y="0"
         x="0 4.0284748">KG</tspan></text>
<g
       id="g636"><g
         clip-path="url(#clipPath640)"
         id="g638"><g
           transform="translate(221.6431,467.7429)"
           id="g644"><path
             id="path646"
             style="fill:#8e8e8d;fill-opacity:1;fill-rule:nonzero;stroke:none"
             d="m 0,0 -1.492,0 0,8.807 8.706,0 0,-1.489 L 0,7.318 0,0 Z" /></g><g
           transform="translate(228.9815,477.9143)"
           id="g648"><path
             id="path650"
             style="fill:#8e8e8d;fill-opacity:1;fill-rule:nonzero;stroke:none"
             d="m 0,0 -0.746,0 0,1.674 -7.463,0 0,-1.674 -0.746,0 0,3.411 0.746,0 0,-0.993 7.463,0 0,0.993 L 0,3.411 0,0 Z" /></g><g
           transform="translate(218.8445,476.6115)"
           id="g652"><path
             id="path654"
             style="fill:#8e8e8d;fill-opacity:1;fill-rule:nonzero;stroke:none"
             d="m 0,0 0,-0.744 -1.679,0 0,-7.442 1.679,0 0,-0.744 -3.42,0 0,0.744 0.995,0 0,7.442 -0.995,0 L -3.42,0 0,0 Z" /></g></g></g><text
       id="text656"
       style="font-variant:normal;font-weight:bold;font-stretch:normal;font-size:5.79489994px;font-family:Verdana;-inkscape-font-specification:Verdana-Bold;writing-mode:lr-tb;fill:#8e8e8d;fill-opacity:1;fill-rule:nonzero;stroke:none"
       transform="matrix(1,0,0,-0.99725621,222.8525,469.6758)"><tspan
         id="tspan658"
         y="0"
         x="0 6.1310043">mm</tspan></text>
<path
       id="path690-5"
       style="fill:#8e8e8d;fill-opacity:1;fill-rule:nonzero;stroke:none"
       d="m 131.00249,469.39054 c 0,0 -3.078,0.966 -2.873,4.332 0.132,2.176 0.801,2.835 0.304,3.557 -0.365,0.53 -0.809,0.628 -0.809,0.628 0,0 1.454,0.314 2.228,-1.214 0,0 -0.743,2.468 0.334,3.955 1.311,1.81 3.85,1.935 3.85,1.935 0,0 -1.344,-0.538 -0.745,-1.689 0.649,-1.245 1.407,-2.301 3.256,-4.034 1.329,-1.245 1.904,-3.41 1.235,-4.75 -0.67,-1.339 -1.612,-2.144 -2.658,-2.626 0,0 1.455,1.475 0.837,2.312 -0.755,1.024 -1.289,1.193 -1.289,1.193 0,0 -0.085,-0.874 -1.013,-1.255 -1.119,-0.461 -0.125,1.067 -0.125,1.067 0,0 0.934,1.527 0.791,2.49 -0.142,0.962 -0.498,0.983 -0.498,0.983 0,0 0.428,-0.905 -1.764,-2.217 -0.724,-0.434 -1.907,-0.262 -2.171,-1.863 -0.187,-1.14 1.11,-2.804 1.11,-2.804" /><g
       transform="translate(-277.46101,-28.061398)"
       id="g660"><g
         clip-path="url(#clipPath664)"
         id="g662"><g
           transform="translate(360.012,469.0271)"
           id="g668"><path
             id="path670"
             style="fill:#8e8e8d;fill-opacity:1;fill-rule:nonzero;stroke:none"
             d="m 0,0 -1.365,5.369 -0.892,-1.78 -3.401,0 0,0.795 2.908,0 1.631,3.252 L -0.094,3.604 1.381,11.01 2.436,6.536 2.964,6.686 3.183,5.922 1.852,5.543 1.446,7.261 0,0 Z" /></g><g
           transform="translate(368.2901,471.3869)"
           id="g672"><path
             id="path674"
             style="fill:#ececec;fill-opacity:1;fill-rule:nonzero;stroke:none"
             d="m 0,0 -1.505,0 0,2.562 -2.22,0 0,-2.562 -1.504,0 0,5.817 1.504,0 0,-2.13 2.22,0 0,2.13 L 0,5.817 0,0 Z" /></g><g
           transform="translate(366.929,471.5305)"
           id="g676"><path
             id="path678"
             style="fill:#8e8e8d;fill-opacity:1;fill-rule:nonzero;stroke:none"
             d="m 0,0 1.218,0 0,5.53 -1.218,0 0,-2.13 -2.507,0 0,2.13 -1.218,0 0,-5.53 1.218,0 0,2.562 L 0,2.562 0,0 Z m 1.505,-0.287 -1.792,0 0,2.562 -1.933,0 0,-2.562 -1.792,0 0,6.103 1.792,0 0,-2.129 1.933,0 0,2.129 1.792,0 0,-6.103 z" /></g><g
           transform="translate(373.4951,471.3869)"
           id="g680"><path
             id="path682"
             style="fill:#ececec;fill-opacity:1;fill-rule:nonzero;stroke:none"
             d="m 0,0 -4.132,0 0,0.902 2.316,2.457 -2.222,0 0,1.027 3.995,0 0,-0.886 L -2.323,1.046 0,1.046 0,0 Z" /></g><g
           transform="translate(369.5069,471.5305)"
           id="g684"><path
             id="path686"
             style="fill:#8e8e8d;fill-opacity:1;fill-rule:nonzero;stroke:none"
             d="m 0,0 3.845,0 0,0.759 -2.509,0 2.466,2.653 0,0.687 -3.708,0 0,-0.741 2.411,0 L 0,0.701 0,0 Z m 4.132,-0.287 -4.419,0 0,1.102 2.126,2.257 -2.032,0 0,1.314 4.282,0 0,-1.086 -2.094,-2.254 2.137,0 0,-1.333 z" /></g><g
           transform="translate(130.9915,469.3811)"
           id="g688" /></g></g><text
       id="text696"
       style="font-variant:normal;font-weight:bold;font-stretch:normal;font-size:10.18120003px;font-family:Verdana;-inkscape-font-specification:Verdana-Bold;writing-mode:lr-tb;fill:#8e8e8d;fill-opacity:1;fill-rule:nonzero;stroke:none"
       transform="matrix(1,0,0,-0.99725966,124.501,467.4053)"><tspan
         id="tspan698"
         y="0"
         x="0">м</tspan></text>
<text
       id="text700"
       style="font-variant:normal;font-weight:bold;font-stretch:normal;font-size:10.18120003px;font-family:Verdana;-inkscape-font-specification:Verdana-Bold;writing-mode:lr-tb;fill:#ececec;fill-opacity:1;fill-rule:nonzero;stroke:none"
       transform="matrix(1,0,0,-0.99725966,132.9514,467.4053)"><tspan
         id="tspan702"
         y="0"
         x="0">²</tspan></text>
<g
       id="g704"><g
         clip-path="url(#clipPath708)"
         id="g706"><g
           transform="translate(138.1074,471.2324)"
           id="g712" /><g
           transform="translate(188.8587,469.5114)"
           id="g716"><path
             id="path718"
             style="fill:#e3e2e1;fill-opacity:1;fill-rule:nonzero;stroke:none"
             d="m 0,0 -0.619,0 0,0.177 0.442,0 0,0.442 L 0,0.619 0,0 Z" /></g><path
           id="path720"
           style="fill:#e3e2e1;fill-opacity:1;fill-rule:nonzero;stroke:none"
           d="m 176.686,469.511 -1.05,0 0,0.177 1.05,0 0,-0.177 z m 2.1,0 -1.05,0 0,0.177 1.05,0 0,-0.177 z m 2.101,0 -1.051,0 0,0.177 1.051,0 0,-0.177 z m 2.101,0 -1.05,0 0,0.177 1.05,0 0,-0.177 z m 2.101,0 -1.051,0 0,0.177 1.051,0 0,-0.177 z m 2.1,0 -1.051,0 0,0.177 1.051,0 0,-0.177 z" /><g
           transform="translate(174.5852,469.5114)"
           id="g722"><path
             id="path724"
             style="fill:#e3e2e1;fill-opacity:1;fill-rule:nonzero;stroke:none"
             d="m 0,0 -0.619,0 0,0.619 0.177,0 0,-0.442 L 0,0.177 0,0 Z" /></g><path
           id="path726"
           style="fill:#e3e2e1;fill-opacity:1;fill-rule:nonzero;stroke:none"
           d="m 174.143,474.741 -0.177,0 0,0.922 0.177,0 0,-0.922 z m 0,-1.844 -0.177,0 0,0.922 0.177,0 0,-0.922 z m 0,-1.845 -0.177,0 0,0.922 0.177,0 0,-0.922 z" /><g
           transform="translate(174.1433,476.5852)"
           id="g728"><path
             id="path730"
             style="fill:#e3e2e1;fill-opacity:1;fill-rule:nonzero;stroke:none"
             d="m 0,0 -0.177,0 0,0.619 0.619,0 0,-0.177 L 0,0.442 0,0 Z" /></g><path
           id="path732"
           style="fill:#e3e2e1;fill-opacity:1;fill-rule:nonzero;stroke:none"
           d="m 176.686,477.027 -1.05,0 0,0.177 1.05,0 0,-0.177 z m 2.101,0 -1.051,0 0,0.177 1.051,0 0,-0.177 z m 2.1,0 -1.051,0 0,0.177 1.051,0 0,-0.177 z m 2.101,0 -1.05,0 0,0.177 1.05,0 0,-0.177 z m 2.101,0 -1.05,0 0,0.177 1.05,0 0,-0.177 z m 2.1,0 -1.05,0 0,0.177 1.05,0 0,-0.177 z" /><g
           transform="translate(188.8587,476.5852)"
           id="g734"><path
             id="path736"
             style="fill:#e3e2e1;fill-opacity:1;fill-rule:nonzero;stroke:none"
             d="m 0,0 -0.177,0 0,0.442 -0.442,0 0,0.177 L 0,0.619 0,0 Z" /></g><path
           id="path738"
           style="fill:#e3e2e1;fill-opacity:1;fill-rule:nonzero;stroke:none"
           d="m 188.859,474.741 -0.177,0 0,0.922 0.177,0 0,-0.922 z m 0,-1.844 -0.177,0 0,0.922 0.177,0 0,-0.922 z m 0,-1.845 -0.177,0 0,0.922 0.177,0 0,-0.922 z" /><g
           transform="translate(178.4712,469.9289)"
           id="g740"><path
             id="path742"
             style="fill:#8e8e8d;fill-opacity:1;fill-rule:nonzero;stroke:none"
             d="m 0,0 c 0,0 -2.951,0.926 -2.755,4.153 0.127,2.087 0.769,2.719 0.292,3.411 -0.35,0.508 -0.776,0.602 -0.776,0.602 0,0 1.395,0.301 2.136,-1.164 0,0 -0.712,2.367 0.321,3.792 1.256,1.736 3.691,1.856 3.691,1.856 0,0 -1.289,-0.516 -0.714,-1.619 C 2.817,9.837 3.543,8.824 5.317,7.163 6.591,5.969 7.143,3.893 6.5,2.608 5.858,1.324 4.956,0.552 3.952,0.09 c 0,0 1.395,1.415 0.803,2.217 -0.724,0.982 -1.236,1.144 -1.236,1.144 0,0 -0.082,-0.838 -0.971,-1.204 -1.073,-0.441 -0.12,1.024 -0.12,1.024 0,0 0.895,1.464 0.758,2.387 -0.136,0.923 -0.478,0.943 -0.478,0.943 0,0 0.411,-0.868 -1.69,-2.127 C 0.323,4.059 -0.812,4.224 -1.064,2.688 -1.244,1.595 0,0 0,0" /></g><path
           id="path744"
           style="fill:#ececec;fill-opacity:1;fill-rule:nonzero;stroke:none"
           d="m 186.418,467.09 -14.715,0 0,7.516 14.715,0 0,-7.516 z" /><path
           id="path746"
           style="fill:#e3e2e1;fill-opacity:1;fill-rule:nonzero;stroke:none"
           d="m 171.791,467.178 14.538,0 0,7.339 -14.538,0 0,-7.339 z m 14.715,-0.176 -14.892,0 0,7.692 14.892,0 0,-7.692 z" /></g></g><text
       id="text748"
       style="font-variant:normal;font-weight:bold;font-stretch:normal;font-size:9.76179981px;font-family:Verdana;-inkscape-font-specification:Verdana-Bold;writing-mode:lr-tb;fill:#8e8e8d;fill-opacity:1;fill-rule:nonzero;stroke:none"
       transform="matrix(1,0,0,-0.9972546,172.248,468.0352)"><tspan
         id="tspan750"
         y="0"
         x="0">м</tspan></text>
<text
       id="text752"
       style="font-variant:normal;font-weight:bold;font-stretch:normal;font-size:10.18120003px;font-family:Verdana;-inkscape-font-specification:Verdana-Bold;writing-mode:lr-tb;fill:#ececec;fill-opacity:1;fill-rule:nonzero;stroke:none"
       transform="matrix(1,0,0,-0.99725966,180.3516,468.0352)"><tspan
         id="tspan754"
         y="0"
         x="0">³</tspan></text>
<g
       id="g756"><g
         clip-path="url(#clipPath760)"
         id="g758"><g
           transform="translate(185.1113,472.8711)"
           id="g764"><path
             id="path766"
             style="fill:none;stroke:#8e8e8d;stroke-width:0.25;stroke-linecap:butt;stroke-linejoin:miter;stroke-miterlimit:10;stroke-dasharray:none;stroke-opacity:1"
             d="m 0,0 c -0.181,0.184 -0.415,0.304 -0.703,0.359 l 0,0.04 c 0.252,0.082 0.458,0.216 0.619,0.4 0.16,0.182 0.241,0.424 0.241,0.721 0,0.39 -0.175,0.684 -0.524,0.882 -0.351,0.199 -0.82,0.297 -1.41,0.297 -0.395,0 -0.739,-0.032 -1.034,-0.096 C -3.106,2.538 -3.359,2.47 -3.571,2.397 l 0,-1.056 0.114,0 c 0.136,0.073 0.333,0.149 0.591,0.228 0.257,0.079 0.495,0.119 0.715,0.119 0.295,0 0.511,-0.034 0.649,-0.101 0.139,-0.068 0.207,-0.178 0.207,-0.33 0,-0.165 -0.063,-0.283 -0.189,-0.355 C -1.61,0.831 -1.799,0.796 -2.048,0.796 l -0.683,0 0,-0.967 0.757,0 c 0.315,0 0.525,-0.036 0.632,-0.109 0.108,-0.074 0.161,-0.19 0.161,-0.349 0,-0.186 -0.082,-0.317 -0.245,-0.394 -0.164,-0.077 -0.409,-0.115 -0.737,-0.115 -0.251,0 -0.508,0.039 -0.772,0.117 -0.262,0.078 -0.463,0.155 -0.602,0.231 l -0.109,0 0,-1.071 C -3.464,-1.935 -3.229,-2 -2.94,-2.06 c 0.288,-0.059 0.646,-0.088 1.074,-0.088 0.706,0 1.238,0.12 1.597,0.362 0.361,0.241 0.54,0.595 0.54,1.057 C 0.271,-0.427 0.181,-0.185 0,0 Z" /></g><g
           transform="translate(173.2178,476.093)"
           id="g768"><path
             id="path770"
             style="fill:#e3e2e1;fill-opacity:1;fill-rule:nonzero;stroke:none"
             d="M 0,0 -0.129,0.121 0.596,0.895 0.725,0.774 0,0 Z m -1.45,-1.548 -0.129,0.121 0.725,0.774 0.129,-0.121 -0.725,-0.774 z" /></g><g
           transform="translate(187.9331,468.5774)"
           id="g772"><path
             id="path774"
             style="fill:#e3e2e1;fill-opacity:1;fill-rule:nonzero;stroke:none"
             d="M 0,0 -0.129,0.121 0.596,0.895 0.725,0.774 0,0 Z m -1.451,-1.547 -0.129,0.12 0.726,0.774 0.129,-0.121 -0.726,-0.773 z" /></g><g
           transform="translate(187.9331,476.093)"
           id="g776"><path
             id="path778"
             style="fill:#e3e2e1;fill-opacity:1;fill-rule:nonzero;stroke:none"
             d="M 0,0 -0.129,0.121 0.596,0.895 0.725,0.773 0,0 Z m -1.451,-1.548 -0.129,0.121 0.726,0.774 0.129,-0.121 -0.726,-0.774 z" /></g><g
           transform="translate(72.9441,145.029)"
           id="g782" /><g
           transform="translate(73.8074,143.9118)"
           id="g786" /><g
           transform="translate(74.6504,144.8503)"
           id="g790" /><g
           transform="translate(75.7327,143.9118)"
           id="g794" /><g
           transform="translate(76.9217,144.5915)"
           id="g798" /><g
           transform="translate(72.9441,145.029)"
           id="g802" /><g
           transform="translate(73.8074,143.9118)"
           id="g806" /><g
           transform="translate(74.6504,144.8503)"
           id="g810" /><g
           transform="translate(75.7327,143.9118)"
           id="g814" /><g
           transform="translate(76.9217,144.5915)"
           id="g818" /><g
           transform="translate(78.6634,144.1706)"
           id="g822" /><g
           transform="translate(79.1602,144.5544)"
           id="g826" /><g
           transform="translate(79.7901,144.6628)"
           id="g830" /><g
           transform="translate(81.1292,144.4402)"
           id="g834" /><g
           transform="translate(81.5696,144.6638)"
           id="g838" /><g
           transform="translate(83.262,144.6706)"
           id="g842" /><g
           transform="translate(84.6682,144.5173)"
           id="g846" /><g
           transform="translate(70.1397,144.1989)"
           id="g850" /><g
           transform="translate(70.5454,144.3161)"
           id="g854" /></g></g><path
       id="path766-3"
       style="fill:none;stroke:#8e8e8d;stroke-width:0.25;stroke-linecap:butt;stroke-linejoin:miter;stroke-miterlimit:10;stroke-dasharray:none;stroke-opacity:1"
       d="m 185.08232,472.90533 c -0.181,0.184 -0.415,0.304 -0.703,0.359 l 0,0.04 c 0.252,0.082 0.458,0.216 0.619,0.4 0.16,0.182 0.241,0.424 0.241,0.721 0,0.39 -0.175,0.684 -0.524,0.882 -0.351,0.199 -0.82,0.297 -1.41,0.297 -0.395,0 -0.739,-0.032 -1.034,-0.096 -0.295,-0.065 -0.548,-0.133 -0.76,-0.206 l 0,-1.056 0.114,0 c 0.136,0.073 0.333,0.149 0.591,0.228 0.257,0.079 0.495,0.119 0.715,0.119 0.295,0 0.511,-0.034 0.649,-0.101 0.139,-0.068 0.207,-0.178 0.207,-0.33 0,-0.165 -0.063,-0.283 -0.189,-0.355 -0.126,-0.071 -0.315,-0.106 -0.564,-0.106 l -0.683,0 0,-0.967 0.757,0 c 0.315,0 0.525,-0.036 0.632,-0.109 0.108,-0.074 0.161,-0.19 0.161,-0.349 0,-0.186 -0.082,-0.317 -0.245,-0.394 -0.164,-0.077 -0.409,-0.115 -0.737,-0.115 -0.251,0 -0.508,0.039 -0.772,0.117 -0.262,0.078 -0.463,0.155 -0.602,0.231 l -0.109,0 0,-1.071 c 0.182,-0.074 0.417,-0.139 0.706,-0.199 0.288,-0.059 0.646,-0.088 1.074,-0.088 0.706,0 1.238,0.12 1.597,0.362 0.361,0.241 0.54,0.595 0.54,1.057 0,0.302 -0.09,0.544 -0.271,0.729 z" /><path
       id="path714"
       style="fill:none;stroke:#8e8e8d;stroke-width:0.25;stroke-linecap:butt;stroke-linejoin:miter;stroke-miterlimit:10;stroke-dasharray:none;stroke-opacity:1"
       d="m 138.26152,471.14212 -2.098,0 c 0.119,0.086 0.261,0.187 0.425,0.306 0.164,0.117 0.303,0.225 0.415,0.325 0.398,0.348 0.654,0.643 0.771,0.889 0.116,0.244 0.174,0.501 0.174,0.769 0,0.463 -0.166,0.815 -0.499,1.057 -0.334,0.242 -0.807,0.362 -1.42,0.362 -0.319,0 -0.636,-0.031 -0.953,-0.094 -0.316,-0.062 -0.582,-0.132 -0.797,-0.208 l 0,-1.175 0.114,0 c 0.182,0.106 0.388,0.199 0.614,0.278 0.228,0.079 0.436,0.119 0.624,0.119 0.262,0 0.46,-0.053 0.594,-0.156 0.135,-0.105 0.202,-0.255 0.202,-0.451 0,-0.178 -0.046,-0.354 -0.137,-0.528 -0.092,-0.174 -0.323,-0.405 -0.694,-0.693 -0.172,-0.136 -0.383,-0.283 -0.631,-0.443 -0.249,-0.158 -0.487,-0.305 -0.716,-0.441 l 0,-0.937 4.012,0 0,1.021 z" /></g></svg>